<svg id="master-artboard" version="1.1" xmlns="http://www.w3.org/2000/svg" x="0" y="0" width="788.727" height="788.541"><path id="ee-background" fill="#fff" fill-opacity="0" pointer-events="none" d="M0 0h788.727v788.541H0z"/><defs><marker orient="auto" refY="0" refX="0" id="Arrow2Lend"><path fill-rule="evenodd" stroke-width=".625" stroke-linejoin="round" id="path3875" d="M-10.69-4.437L1.328-.017-10.69 4.401c1.92-2.61 1.909-6.18 0-8.84z"/></marker><marker orient="auto" refY="0" refX="0" id="marker-1"><path fill-rule="evenodd" stroke-width=".625" stroke-linejoin="round" id="path-1" d="M-10.69-4.437L1.328-.017-10.69 4.401c1.92-2.61 1.909-6.18 0-8.84z"/></marker><marker orient="auto" refY="0" refX="0" id="marker-2"><path fill-rule="evenodd" stroke-width=".625" stroke-linejoin="round" id="path-2" d="M-10.69-4.437L1.328-.017-10.69 4.401c1.92-2.61 1.909-6.18 0-8.84z"/></marker><marker orient="auto" refY="0" refX="0" id="marker-3"><path fill-rule="evenodd" stroke-width=".625" stroke-linejoin="round" id="path-3" d="M-10.69-4.437L1.328-.017-10.69 4.401c1.92-2.61 1.909-6.18 0-8.84z"/></marker><marker orient="auto" refY="0" refX="0" id="marker-4"><path fill-rule="evenodd" stroke-width=".625" stroke-linejoin="round" id="path-4" d="M-10.69-4.437L1.328-.017-10.69 4.401c1.92-2.61 1.909-6.18 0-8.84z"/></marker><marker orient="auto" refY="0" refX="0" id="marker-5"><path fill-rule="evenodd" stroke-width=".625" stroke-linejoin="round" id="path-5" d="M-10.69-4.437L1.328-.017-10.69 4.401c1.92-2.61 1.909-6.18 0-8.84z"/></marker><style id="ee-google-fonts">@import url(https://fonts.googleapis.com/css?family=Playfair+Display:400,400italic,700,700italic,900,900italic);</style></defs><path d="M466.28 85.953l.79 750.373-.79-750.373z" fill="#333" stroke="#000" stroke-width="0" paint-order="fill"/><g transform="matrix(3.97063 0 0 3.97063 -85.794 -127.072)"><path fill="none" stroke-width=".475" id="path3838" d="M115.42 201.801a72.417 72.417 0 0110.847-144.428 72.417 72.417 0 01-10.847 144.428z" transform="translate(.085 1.745)"/><path fill="none" stroke="#000" stroke-width=".58401752" stroke-miterlimit="4" stroke-dashoffset="0" id="path3840" d="M104.87 40.755l-1.277-7.207M89.386 44.92l-2.51-6.876M74.86 51.71l-3.667-6.336m-9.46 15.546l-4.71-5.603M50.404 72.27l-5.612-4.7M41.22 85.414l-6.342-3.654m-.422 18.193l-6.88-2.497m2.745 17.99l-7.21-1.264m5.828 17.24l-7.32.012m8.733 15.967l-7.207 1.277m11.372 14.208l-6.876 2.509m13.666 12.018l-6.335 3.665m15.546 9.461l-5.603 4.71m16.952 6.618l-4.7 5.612m17.844 3.573l-3.654 6.343m18.194.42l-2.498 6.88m17.99-2.745l-1.264 7.21m17.24-5.828l.013 7.32m15.966-8.733l1.278 7.208m14.208-11.372l2.51 6.876m12.015-13.667l3.666 6.336m9.462-15.545l4.71 5.602m6.617-16.953l5.612 4.7m3.574-17.844l6.342 3.654m.42-18.193l6.881 2.497m-2.745-17.99l7.21 1.264m-5.828-17.24l7.32-.013m-8.732-15.966l7.207-1.278M207.352 99.79l6.877-2.51M200.56 85.262l6.336-3.666m-15.546-9.46l5.603-4.711m-16.952-6.618l4.7-5.611m-17.843-3.573l3.653-6.343m-18.194-.421l2.497-6.88m-17.99 2.745l1.265-7.21m-17.24 5.828l-.012-7.32m-8.01 7.678l-.456-5.162M97.039 42.5l-1.345-5.004M81.976 47.998l-2.194-4.694M68.097 56.028l-2.977-4.24m-9.298 14.56l-3.666-3.66M45.528 78.64l-4.248-2.967m-3.758 16.862l-4.697-2.186m-.772 17.258l-5.006-1.336m2.236 17.13l-5.161-.446m5.177 16.482l-5.161.456m6.216 7.5l-5.102.905m6.846 6.928l-5.003 1.346m10.501 13.717l-4.692 2.194m12.723 11.685l-4.24 2.976m14.56 9.298l-3.66 3.667m15.953 6.629l-2.967 4.246m16.862 3.758l-2.185 4.698m17.258.773l-1.336 5.004m17.13-2.235l-.447 5.161m16.482-5.177l.457 5.16m15.333-7.96l1.345 5.003m13.717-10.5l2.195 4.693m11.685-12.725l2.975 4.242m9.298-14.561l3.668 3.66m6.628-15.953l4.247 2.967m3.757-16.862l4.698 2.185m.772-17.258l5.007 1.336m-2.237-17.13l5.162.446m-5.177-16.482l5.16-.456m-7.96-15.332l5.003-1.346M204.27 92.377l4.693-2.194m-12.725-11.685l4.241-2.976m-14.56-9.299l3.66-3.666m-15.953-6.629l2.968-4.247m-16.862-3.758l2.185-4.697m-17.26-.773l1.337-5.005m-17.13 2.237l.447-5.162m-10.07 4.834l-.056-3.039m-1.548 3.083l-.11-3.037m-1.494 3.11l-.162-3.036m-1.44 3.134l-.215-3.03m-2.984 3.313l-.32-3.022m-1.275 3.205l-.374-3.015m-1.218 3.226l-.425-3.008m-1.163 3.247l-.478-3m-2.683 3.56l-.583-2.982m-.99 3.304l-.635-2.972m-.933 3.32l-.686-2.96m-.874 3.338l-.738-2.948m-2.363 3.781l-.84-2.92m-.7 3.378l-.89-2.905m-.64 3.39l-.941-2.89m-.58 3.4l-.993-2.872m-2.024 3.973l-1.092-2.836m-.4 3.426l-1.142-2.816m-.342 3.432l-1.19-2.795m-.282 3.436l-1.239-2.775m-1.67 4.135l-1.334-2.73m-.101 3.448l-1.383-2.706m-.044 3.448l-1.429-2.681m.016 3.449l-1.475-2.656m-1.304 4.264l-1.568-2.603m.2 3.443l-1.613-2.575m.259 3.44l-1.657-2.548m.32 3.435L67.712 52.6m-.927 4.36l-1.789-2.456m.5 3.413l-1.832-2.425m.559 3.404l-1.873-2.393m.616 3.393l-1.914-2.36m-.543 4.427l-1.996-2.291m.795 3.356l-2.036-2.257m.853 3.343l-2.074-2.22m.91 3.326l-2.112-2.185m-.157 4.457l-2.186-2.108m1.083 3.274l-2.224-2.07m1.14 3.255l-2.26-2.031m1.198 3.235l-2.295-1.992m.233 4.453l-2.364-1.91m1.366 3.167l-2.396-1.868m1.42 3.143l-2.43-1.826m1.476 3.118l-2.46-1.784m.62 4.416l-2.52-1.697m1.636 3.036l-2.55-1.652m1.688 3.008l-2.578-1.609m1.74 2.979l-2.605-1.563m1.003 4.344l-2.659-1.47m1.894 2.882l-2.685-1.424m1.945 2.85l-2.709-1.378m1.994 2.814l-2.732-1.329m1.378 4.24l-2.777-1.232m2.139 2.706l-2.8-1.185m2.186 2.668l-2.818-1.135m2.232 2.63l-2.84-1.086m1.744 4.104l-2.874-.986m2.366 2.509l-2.891-.936m2.41 2.468l-2.907-.886m2.452 2.426l-2.922-.835m2.093 3.937l-2.948-.733m2.575 2.295l-2.961-.681m2.616 2.248l-2.974-.628m2.654 2.202l-2.983-.577m2.429 3.74l-3.001-.473m2.766 2.06l-3.01-.42m2.801 2.013l-3.015-.368m2.835 1.963l-3.022-.314m2.746 3.513l-3.032-.209m2.935 1.811l-3.035-.156m2.966 1.761l-3.037-.103m2.997 1.707l-3.038-.054m3.04 3.26l-3.037.056m3.082 1.549l-3.037.109m3.108 1.494l-3.035.163m3.135 1.44l-3.032.215m3.315 2.984l-3.022.32m3.204 1.275l-3.015.373m3.227 1.218l-3.01.426m3.248 1.162l-3 .478m3.562 2.684l-2.984.582m3.305.99l-2.972.635m3.321.933l-2.96.686m3.336.875l-2.948.738m3.782 2.362l-2.92.84m3.377.7l-2.905.89m3.39.64l-2.889.942m3.4.58l-2.872.992m3.973 2.024l-2.836 1.092m3.425.402l-2.816 1.14m3.433.342l-2.796 1.19m3.436.282l-2.774 1.239m4.134 1.67l-2.73 1.334m3.449.102l-2.707 1.382m3.45.044l-2.682 1.429m3.449-.016l-2.657 1.476m4.265 1.303l-2.603 1.568m3.443-.2l-2.575 1.613m3.439-.26l-2.546 1.658m3.434-.32l-2.518 1.702m4.362.928l-2.457 1.788m3.413-.499l-2.425 1.83m3.403-.558L46.1 189.91m3.393-.617l-2.36 1.914m4.427.543l-2.292 1.995m3.357-.794l-2.257 2.035m3.342-.851l-2.22 2.073m3.327-.91l-2.184 2.113m4.456.155l-2.108 2.188m3.274-1.084l-2.07 2.224m3.255-1.14l-2.031 2.26m3.235-1.198l-1.992 2.295m4.454-.234l-1.911 2.365m3.167-1.366l-1.868 2.397m3.143-1.42l-1.827 2.428m3.119-1.475l-1.784 2.46m4.416-.62l-1.697 2.52m3.036-1.636l-1.652 2.55m3.007-1.688l-1.607 2.579m2.977-1.742l-1.563 2.606m4.346-1.002l-1.47 2.658m2.881-1.895l-1.424 2.685m2.848-1.944l-1.376 2.708m2.815-1.994l-1.33 2.734m4.241-1.379l-1.234 2.777m2.706-2.138l-1.184 2.798m2.668-2.185l-1.135 2.818m2.63-2.232l-1.087 2.838m4.105-1.742l-.987 2.874m2.51-2.365l-.936 2.89m2.468-2.409l-.886 2.907m2.426-2.453l-.835 2.922m3.938-2.094l-.733 2.95m2.293-2.577l-.68 2.963m2.25-2.616l-.63 2.973m2.202-2.655l-.577 2.984m3.74-2.43l-.473 3.002m2.061-2.765l-.42 3.008m2.012-2.8l-.367 3.016m1.962-2.836l-.315 3.022m3.515-2.746l-.21 3.032m1.812-2.935l-.156 3.035m1.76-2.966l-.104 3.036m1.71-2.996l-.056 3.038m3.261-3.04l.056 3.037m1.55-3.081l.108 3.036m1.495-3.108l.161 3.035m1.442-3.135l.214 3.032m2.984-3.315l.32 3.022m1.275-3.205l.373 3.016m1.218-3.227l.426 3.008m1.162-3.247l.479 3.001m2.683-3.561l.582 2.982m.99-3.304l.636 2.972m.932-3.32l.687 2.959m.874-3.337l.737 2.948m2.364-3.781l.84 2.92m.7-3.378l.89 2.905m.64-3.388l.941 2.888m.58-3.4l.992 2.872m2.025-3.972l1.092 2.835m.4-3.426l1.142 2.817m.342-3.433l1.19 2.796m.282-3.437l1.238 2.775m1.67-4.135l1.335 2.73m.101-3.448l1.383 2.707m.044-3.45l1.429 2.682m-.016-3.449l1.475 2.657m1.304-4.265l1.567 2.604m-.199-3.444l1.613 2.575m-.259-3.44l1.656 2.548m-.319-3.435l1.702 2.518m.927-4.362l1.789 2.457m-.5-3.413l1.832 2.425m-.559-3.403l1.873 2.392m-.617-3.393l1.915 2.36m.543-4.427l1.995 2.292m-.794-3.357l2.035 2.257m-.852-3.342l2.074 2.22m-.91-3.327l2.112 2.184m.155-4.456l2.188 2.108m-1.084-3.274l2.225 2.07m-1.14-3.255l2.26 2.031m-1.198-3.235l2.295 1.992m-.234-4.453l2.365 1.91m-1.366-3.167l2.396 1.868m-1.42-3.143l2.429 1.826m-1.475-3.118l2.46 1.784m-.621-4.416l2.521 1.697m-1.636-3.037l2.55 1.653m-1.689-3.007l2.58 1.607m-1.742-2.977l2.606 1.563m-1.003-4.345l2.659 1.47m-1.894-2.882l2.684 1.424m-1.945-2.848l2.709 1.376m-1.993-2.814l2.732 1.329m-1.378-4.24l2.777 1.232m-2.139-2.706l2.798 1.185m-2.184-2.668l2.818 1.135m-2.232-2.63l2.838 1.087m-1.742-4.105l2.874.986m-2.366-2.51l2.891.937m-2.41-2.468l2.907.886m-2.452-2.426l2.922.835m-2.094-3.937l2.949.732m-2.575-2.293l2.961.68m-2.616-2.249l2.973.629m-2.655-2.201l2.985.575m-2.43-3.739l3.002.472m-2.766-2.06l3.01.42m-2.802-2.012l3.016.367m-2.835-1.963l3.022.316m-2.746-3.514l3.032.208m-2.935-1.81l3.035.155m-2.966-1.76l3.036.103m-2.996-1.708l3.038.055m-3.04-3.261l3.037-.055m-3.079-1.555l3.037-.11m-3.108-1.494l3.034-.162m-3.134-1.44l3.031-.215m-3.314-2.983l3.022-.32m-3.205-1.276l3.016-.373m-3.227-1.219l3.008-.425m-3.247-1.163l3.001-.478m-3.562-2.683l2.982-.583m-3.303-.99l2.972-.634m-3.321-.934l2.96-.686m-3.337-.874l2.949-.738m-3.782-2.363l2.92-.84m-3.378-.699l2.904-.891m-3.388-.64l2.889-.941m-3.4-.58l2.872-.992m-3.973-2.024l2.835-1.092m-3.425-.401l2.817-1.141m-3.433-.342l2.796-1.19m-3.438-.282l2.775-1.239m-4.135-1.67l2.731-1.335m-3.448-.1l2.707-1.383m-3.45-.044l2.682-1.429m-3.45.016l2.657-1.476m-4.264-1.303l2.603-1.568m-3.443.2l2.575-1.613m-3.439.259l2.546-1.658m-3.434.32l2.518-1.701m-4.362-.928l2.457-1.788m-3.413.499l2.425-1.831m-3.403.559l2.391-1.874m-3.393.617l2.36-1.914m-4.426-.543l2.292-1.996m-3.357.795l2.256-2.036m-3.341.852l2.22-2.074m-3.327.911l2.184-2.113m-4.456-.156l2.108-2.188m-3.274 1.085l2.07-2.225m-3.255 1.141l2.03-2.26m-3.233 1.197l1.991-2.295m-4.453.233l1.91-2.363m-3.168 1.366l1.87-2.397m-3.144 1.42l1.826-2.428m-3.118 1.475l1.784-2.46m-4.416.62l1.696-2.52m-3.035 1.635l1.652-2.55m-3.007 1.69l1.607-2.58m-2.977 1.742l1.563-2.606m-4.346 1.002l1.47-2.658m-2.881 1.894l1.423-2.684m-2.848 1.944l1.377-2.708m-2.815 1.993l1.33-2.733m-4.24 1.379l1.232-2.778m-2.706 2.14l1.185-2.8m-2.669 2.186l1.136-2.82m-2.63 2.232l1.086-2.838m-4.105 1.744l.986-2.874m-2.509 2.365l.936-2.89m-2.467 2.409l.885-2.907m-2.425 2.453l.835-2.922m-3.937 2.093l.732-2.948m-2.294 2.576l.68-2.963m-2.248 2.616l.629-2.973m-2.202 2.654l.576-2.983m-3.739 2.429l.473-3.001m-2.061 2.765l.42-3.01m-2.013 2.802l.368-3.017m-1.962 2.837l.315-3.023m-3.515 2.747l.209-3.033m-1.811 2.936l.156-3.035m-1.76 2.966l.103-3.037m-1.708 2.997l.054-3.038"/><path fill="none" stroke="#000" stroke-width=".584" stroke-miterlimit="4" stroke-dashoffset="0" id="path3842" d="M103.977 45.754l1.928 9.738m-18.298-4.786L91.4 59.88m-18.882-1.125l5.51 8.258m-18.738 2.58l7.014 7.026m-17.875 6.186l8.25 5.522m-16.324 9.555l9.17 3.807m-14.147 12.554l9.735 1.944m-9.762 32.096l9.738-1.929m-4.786 18.3l9.175-3.793m-1.125 18.881l8.26-5.509m2.58 18.738l7.025-7.014m6.186 17.874l5.522-8.25m9.554 16.324l3.807-9.169m12.555 14.146l1.945-9.735m32.095 9.762l-1.929-9.738m18.3 4.786l-3.793-9.174m18.881 1.125l-5.509-8.259m18.738-2.58l-7.014-7.026m17.874-6.186l-8.25-5.522m16.324-9.555l-9.169-3.806m14.146-12.556l-9.735-1.944m9.763-32.096l-9.739 1.93m4.787-18.3l-9.175 3.793m1.125-18.881l-8.259 5.509m-2.58-18.738l-7.026 7.015m-6.186-17.875l-5.522 8.25m-9.555-16.324l-3.806 9.169M138.016 45.78l-1.944 9.735m-23.626-11.012l.483 4.94M95.67 47.829l1.437 4.75M79.864 54.36l2.337 4.38m-16.564 5.11l3.146 3.84m-15.249 8.244l3.834 3.152m-13.347 11.06l4.376 2.344M37.464 105.94l4.75 1.444m-8.1 15.327l4.94.49M34.1 139.814l4.941-.483m-1.617 17.26l4.751-1.438m1.781 17.243l4.38-2.336m5.11 16.563l3.84-3.145m8.244 15.248l3.152-3.834m11.061 13.347l2.343-4.376m13.452 10.934l1.445-4.75m15.326 8.1l.491-4.94m16.611 4.953l-.482-4.94m17.26 1.616l-1.439-4.75m17.243-1.782l-2.336-4.379m16.564-5.11l-3.146-3.84m15.248-8.245l-3.834-3.152m13.347-11.06l-4.376-2.344m10.934-13.452l-4.749-1.444m8.098-15.327l-4.939-.49m4.953-16.612l-4.94.483m1.617-17.259l-4.752 1.437m-1.78-17.242l-4.38 2.337m-5.11-16.565l-3.84 3.147m-8.245-15.25l-3.15 3.835m-11.062-13.347l-2.344 4.376M146.32 47.868l-1.444 4.749m-15.327-8.1l-.49 4.94m-12.342-5.264l.158 3.278m-8.679-2.445l.48 3.246m-8.878-1.583l.795 3.185m-8.99-.706l1.104 3.09m-9.016.18l1.401 2.968m-8.955 1.062l1.686 2.817m-8.808 1.934l1.953 2.638m-8.575 2.788l2.202 2.434m-8.26 3.615l2.43 2.206m-7.868 4.408l2.635 1.957m-7.397 5.158l2.814 1.69m-6.856 5.858l2.967 1.405m-6.249 6.501l3.09 1.108m-5.582 7.082l3.183.8m-4.86 7.596l3.247.484m-4.092 8.036l3.278.163m-3.285 8.398l3.278-.158m-2.446 8.68l3.247-.48m-1.583 8.877l3.185-.795m-.706 8.99l3.091-1.103m.18 9.015l2.968-1.4m1.061 8.954l2.817-1.685m1.934 8.808l2.638-1.954m2.788 8.576l2.434-2.202m3.616 8.261l2.206-2.43m4.407 7.866l1.958-2.635m5.157 7.397l1.69-2.814m5.858 6.856l1.405-2.966m6.502 6.248l1.108-3.089m7.083 5.581l.8-3.183m7.595 4.86l.484-3.246m8.036 4.092l.164-3.278m8.397 3.284l-.158-3.278m8.68 2.446l-.48-3.247m8.877 1.583l-.795-3.184m8.99.705l-1.103-3.09m9.016-.18l-1.4-2.968m8.953-1.062l-1.685-2.817m8.808-1.934l-1.954-2.637m8.576-2.789l-2.202-2.434m8.261-3.615l-2.43-2.206m7.866-4.408l-2.635-1.957m7.397-5.158l-2.814-1.69m6.856-5.857l-2.966-1.406m6.25-6.502l-3.09-1.108m5.58-7.082l-3.183-.8m4.86-7.596l-3.246-.484m4.092-8.036l-3.278-.163m3.285-8.398l-3.279.158m2.446-8.679l-3.247.48m1.583-8.878l-3.184.795m.705-8.99l-3.09 1.104m-.18-9.015l-2.968 1.4m-1.062-8.954l-2.816 1.685m-1.934-8.807l-2.638 1.953m-2.789-8.576l-2.433 2.203m-3.616-8.261l-2.206 2.43m-4.408-7.867l-1.957 2.635m-5.157-7.397l-1.69 2.814m-5.858-6.856l-1.406 2.967m-6.5-6.25l-1.109 3.09m-7.083-5.581l-.8 3.183m-7.596-4.86l-.484 3.247m-8.036-4.092l-.163 3.278"/><text font-style="italic" font-weight="Georgia" font-size="21.333" font-family="Georgia" text-anchor="end" fill="#1f1a17" fill-rule="evenodd" stroke-width=".475" transform="rotate(-.167 162463.736 -489831.127) scale(.27073)" x="128.684" y="77.825" class="fil3 fnt0" id="text3892" style="white-space:pre;id:text3892">N</text><text font-style="italic" font-weight="Georgia" font-size="21.333" font-family="Georgia" text-anchor="end" fill="#1f1a17" fill-rule="evenodd" stroke-width=".475" transform="matrix(.27468 -.00025 .00025 .27468 155.797 96.323)" x="191.254" y="134.711" class="fil3 fnt0" id="text3894" style="white-space:pre;id:text3894">E</text><text class="single-line-text" dominant-baseline="text-before-edge" style="white-space:pre" transform="rotate(-.131 97283.94 -51386.79) scale(.25992)" x="127.82" y="179" font-style="italic" font-weight="400" font-size="21.333" font-family="Georgia" text-anchor="end" fill="#1f1a17" fill-rule="evenodd" stroke-width=".475" color="#1f1a17">S</text><text font-style="italic" font-weight="Georgia" font-size="21.333" font-family="Georgia" text-anchor="end" fill="#1f1a17" fill-rule="evenodd" stroke-width=".475" transform="translate(18.71 96.996) scale(.26698)" x="70.699" y="136.494" class="fil3 fnt0" id="text3898" style="white-space:pre;id:text3898">W</text></g><path d="M252.2 16L21.7 78.3l234.6 68.5 234-62.4z" fill="#b0b5ca" transform="rotate(-63.136 820.032 -291.02) scale(.04961)"/><path d="M255.9 466.9V496c-1.1 0-2.2-.1-3.2-.4L21.7 429v-27z" fill="#d9bb4b" transform="rotate(-63.136 820.032 -291.02) scale(.04961)"/><path d="M256.1 328.8l-.2 138.1-234.2-65V263.7z" fill="#6d7486" transform="rotate(-63.136 820.032 -291.02) scale(.04961)"/><path d="M256.2 265l-.1 63.8-234.4-65.1v-66.5z" fill="#d9bb4b" transform="rotate(-63.136 820.032 -291.02) scale(.04961)"/><path d="M256.2 214.2V265L21.7 197.2v-50.3z" fill="#4a5160" transform="rotate(-63.136 820.032 -291.02) scale(.04961)"/><path d="M256.3 146.9l-.1 67.3-234.5-67.3V78.3z" fill="#6d7486" transform="rotate(-63.136 820.032 -291.02) scale(.04961)"/><path d="M490.3 84.4v60.4l-234 69.4h-.1l.1-67.3z" fill="#4a5160" transform="rotate(-63.136 820.032 -291.02) scale(.04961)"/><path d="M490.3 144.8v52.4l-234 67.8h-.1v-50.8h.1z" fill="#383e49" transform="rotate(-63.136 820.032 -291.02) scale(.04961)"/><path d="M256.3 328.8h-.2l-.2 138.1.2.1 234.2-65.1V263.7z" fill="#4a5160" transform="rotate(-63.136 820.032 -291.02) scale(.04961)"/><path d="M490.3 401.9v27l-231.2 66.6c-1 .3-2.1.4-3.2.4v-29.1h.2zM256.3 265h-.1l-.1 63.8h.2l234-65.1v-66.5z" fill="#bc9f44" transform="rotate(-63.136 820.032 -291.02) scale(.04961)"/><path d="M352 281.2c5.3 26.9-8.9 101.7-28.5 120.7V288.3zM391.2 293.8V385c-33.8-34.9-31.8-105.6-31.8-105.6l31.8-7.9z" fill="#6d6d93" transform="rotate(-63.136 820.032 -291.02) scale(.04961)"/><path d="M391.2 385l-67.7 16.9c19.6-19 33.8-93.9 28.5-120.7l7.3-1.8s-2 70.7 31.9 105.6z" fill="#aa8d3d" transform="rotate(-63.136 820.032 -291.02) scale(.04961)"/><path d="M21.7 401.9V429l30 8.6v-27.3z" fill="#b79c48" transform="rotate(-63.136 820.032 -291.02) scale(.04961)"/><path d="M51.7 272l-30-8.3v138.2l30 8.4z" fill="#585e6b" transform="rotate(-63.136 820.032 -291.02) scale(.04961)"/><path d="M51.7 205.9l-30-8.7v66.5l30 8.3z" fill="#b79c48" transform="rotate(-63.136 820.032 -291.02) scale(.04961)"/><path d="M51.7 155.5l-30-8.6v50.3l30 8.7z" fill="#3d424c" transform="rotate(-63.136 820.032 -291.02) scale(.04961)"/><path d="M51.7 87.1l-30-8.8v68.6l30 8.6z" fill="#585e6b" transform="rotate(-63.136 820.032 -291.02) scale(.04961)"/><path d="M302.865 379.616c-.36 1.226-.867 2.14-1.52 2.74-.794.72-1.874 1.08-3.24 1.08-.74 0-1.457-.11-2.15-.33-.694-.227-1.617-.594-2.77-1.1-1.16-.507-2.094-.877-2.8-1.11a42.906 42.906 0 00-.31-.09c-.1-.027-.19-.054-.27-.08-.7.24-1.364.36-1.99.36-.74 0-1.11-.16-1.11-.48 0-.34.433-.51 1.3-.51.573 0 1.173.066 1.8.2.306-.08.583-.17.83-.27.253-.1.573-.237.96-.41.386-.18.693-.314.92-.4-1.354-.134-2.534-.56-3.54-1.28-1.007-.72-1.784-1.71-2.33-2.97-.547-1.254-.82-2.72-.82-4.4 0-1.76.323-3.32.97-4.68.646-1.36 1.55-2.417 2.71-3.17 1.153-.747 2.47-1.12 3.95-1.12 1.52 0 2.853.343 4 1.03 1.146.686 2.033 1.683 2.66 2.99.626 1.313.94 2.87.94 4.67 0 1.666-.29 3.153-.87 4.46-.574 1.3-1.38 2.343-2.42 3.13-1.04.78-2.234 1.23-3.58 1.35v.02c-.387.046-.73.116-1.03.21-.294.1-.694.256-1.2.47-.5.213-.94.376-1.32.49 1.76.353 3.263.633 4.51.84 1.246.206 2.28.31 3.1.31 1.14 0 2.043-.167 2.71-.5.66-.334 1.173-.864 1.54-1.59l.37.14m-14.65-9.14c0 1.666.233 3.133.7 4.4.466 1.26 1.106 2.233 1.92 2.92.806.693 1.703 1.04 2.69 1.04 1.02 0 1.92-.36 2.7-1.08.773-.714 1.373-1.707 1.8-2.98.42-1.28.63-2.744.63-4.39 0-1.667-.234-3.134-.7-4.4-.474-1.267-1.11-2.244-1.91-2.93-.807-.687-1.704-1.03-2.69-1.03-1.02 0-1.92.356-2.7 1.07-.787.72-1.39 1.716-1.81 2.99-.42 1.28-.63 2.743-.63 4.39zm17.548-9.91c.273 0 .53.07.77.21.233.14.42.326.56.56a1.503 1.503 0 010 1.53c-.14.24-.327.426-.56.56a1.503 1.503 0 01-1.53 0c-.24-.134-.43-.32-.57-.56a1.56 1.56 0 010-1.53c.14-.234.33-.42.57-.56.233-.14.487-.21.76-.21m1.25 16.13c0 .446.06.796.18 1.05.12.246.31.42.57.52.26.106.617.16 1.07.16v.5a90.437 90.437 0 00-2.9-.09c-.473 0-1.443.03-2.91.09v-.5c.453 0 .81-.054 1.07-.16.267-.1.46-.274.58-.52.12-.254.18-.604.18-1.05v-7.51c0-.74-.133-1.28-.4-1.62-.273-.334-.75-.5-1.43-.5v-.5c.5.046.997.07 1.49.07 1.013 0 1.847-.11 2.5-.33v10.39zm6.431-7.9c.36-.807.867-1.437 1.52-1.89a3.888 3.888 0 012.23-.67c.887 0 1.673.243 2.36.73.68.486 1.217 1.22 1.61 2.2.393.98.59 2.18.59 3.6 0 1.38-.24 2.56-.72 3.54s-1.127 1.72-1.94 2.22a5.106 5.106 0 01-2.7.74 4.256 4.256 0 01-3.16-1.41l-1.71 1.46-.4-.18c.107-.394.16-.854.16-1.38v-14.74c0-.747-.133-1.287-.4-1.62-.273-.327-.75-.49-1.43-.49v-.51c.513.046 1.01.07 1.49.07 1.033 0 1.867-.114 2.5-.34v8.67m0 8.72c.373.393.8.69 1.28.89.48.206.973.31 1.48.31 1.08 0 1.887-.487 2.42-1.46.527-.974.79-2.47.79-4.49 0-1.954-.24-3.414-.72-4.38-.48-.96-1.213-1.44-2.2-1.44a2.5 2.5 0 00-1.26.35c-.407.226-.767.566-1.08 1.02-.32.446-.557.986-.71 1.62v7.58zm13.707-.82c0 .446.06.796.18 1.05.127.246.32.42.58.52.26.106.617.16 1.07.16v.5a90.22 90.22 0 00-2.91-.09c-.467 0-1.433.03-2.9.09v-.5c.453 0 .81-.054 1.07-.16.26-.1.45-.274.57-.52.127-.254.19-.604.19-1.05v-13.71c0-.74-.137-1.277-.41-1.61-.267-.334-.74-.5-1.42-.5v-.5c.5.046.997.07 1.49.07 1.027 0 1.857-.114 2.49-.34v16.59zm10.037-7.57c0-.927-.193-1.56-.58-1.9-.387-.34-.937-.51-1.65-.51-1.133 0-1.927.283-2.38.85.32.08.587.25.8.51.22.266.33.586.33.96 0 .406-.13.723-.39.95-.253.233-.593.35-1.02.35-.407 0-.727-.137-.96-.41-.227-.274-.34-.634-.34-1.08 0-.627.373-1.197 1.12-1.71.393-.26.877-.474 1.45-.64a6.622 6.622 0 011.92-.26c.653 0 1.23.08 1.73.24.5.16.89.38 1.17.66.367.373.62.81.76 1.31.133.493.2 1.176.2 2.05v6.67c0 .4.057.69.17.87.113.18.303.27.57.27.2 0 .38-.044.54-.13.167-.087.347-.214.54-.38l.27.42c-.28.206-.513.37-.7.49a2.767 2.767 0 01-.65.28c-.24.066-.52.1-.84.1-.773 0-1.31-.194-1.61-.58-.3-.387-.45-.904-.45-1.55-.473.773-1.037 1.323-1.69 1.65-.66.32-1.33.48-2.01.48-.553 0-1.06-.094-1.52-.28-.46-.194-.83-.49-1.11-.89-.273-.407-.41-.91-.41-1.51 0-.607.147-1.127.44-1.56.3-.427.72-.804 1.26-1.13.54-.327 1.26-.68 2.16-1.06.16-.06.543-.217 1.15-.47.613-.247 1.053-.497 1.32-.75.273-.247.41-.52.41-.82v-1.49m0 2.48c-.12.18-.317.346-.59.5a45.06 45.06 0 01-1.71.87c-.46.213-.85.436-1.17.67-.32.233-.593.543-.82.93-.227.393-.34.873-.34 1.44 0 .7.173 1.226.52 1.58.353.353.82.53 1.4.53 1.06 0 1.963-.604 2.71-1.81v-4.71zm5.283-9.67c.86.053 1.64.08 2.34.08l.59-.01c2.2-.047 3.406-.07 3.62-.07 2.826 0 4.946.706 6.36 2.12 1.406 1.413 2.11 3.476 2.11 6.19 0 1.74-.34 3.263-1.02 4.57a7.186 7.186 0 01-2.99 3.04c-1.3.713-2.857 1.07-4.67 1.07-.22 0-.744-.014-1.57-.04-.82-.02-1.42-.03-1.8-.03-1.307 0-2.297.023-2.97.07v-.48c.58-.027 1-.09 1.26-.19a.9.9 0 00.54-.56c.093-.274.14-.71.14-1.31v-11.91c0-.6-.047-1.037-.14-1.31a.9.9 0 00-.54-.56c-.26-.107-.68-.17-1.26-.19v-.48m4.17 14.49c0 .58.046 1.013.14 1.3a.94.94 0 00.52.6c.253.113.633.17 1.14.17 1.706 0 3.043-.31 4.01-.93.973-.62 1.656-1.52 2.05-2.7.393-1.187.59-2.697.59-4.53 0-1.847-.217-3.35-.65-4.51-.427-1.16-1.127-2.027-2.1-2.6-.974-.574-2.28-.86-3.92-.86-.5 0-.874.056-1.12.17a.94.94 0 00-.52.6c-.094.293-.14.723-.14 1.29v12zm15.604-15.86c.274 0 .53.07.77.21.234.14.42.326.56.56a1.503 1.503 0 010 1.53c-.14.24-.326.426-.56.56a1.503 1.503 0 01-1.53 0c-.24-.134-.43-.32-.57-.56a1.56 1.56 0 010-1.53c.14-.234.33-.42.57-.56.234-.14.487-.21.76-.21m1.25 16.13c0 .446.06.796.18 1.05.12.246.31.42.57.52.26.106.617.16 1.07.16v.5a90.437 90.437 0 00-2.9-.09c-.473 0-1.443.03-2.91.09v-.5c.454 0 .81-.054 1.07-.16.267-.1.46-.274.58-.52.12-.254.18-.604.18-1.05v-7.51c0-.74-.133-1.28-.4-1.62-.273-.334-.75-.5-1.43-.5v-.5c.5.046.997.07 1.49.07 1.014 0 1.847-.11 2.5-.33v10.39zm7.031-7.39c.18-.5.44-.984.78-1.45a4.26 4.26 0 011.21-1.16c.467-.307.964-.46 1.49-.46.42 0 .797.083 1.13.25.334.166.594.396.78.69.187.286.28.603.28.95 0 .42-.126.776-.38 1.07-.246.293-.576.44-.99.44-.353 0-.656-.114-.91-.34-.246-.22-.37-.524-.37-.91 0-.52.274-.954.82-1.3-.106-.154-.273-.23-.5-.23-.633 0-1.206.243-1.72.73a4.986 4.986 0 00-1.19 1.79c-.286.713-.43 1.376-.43 1.99v5.09c0 .74.21 1.253.63 1.54.42.286 1.057.43 1.91.43v.5a171.84 171.84 0 00-3.69-.09c-.426 0-1.373.03-2.84.09v-.5c.454 0 .81-.054 1.07-.16.267-.1.46-.274.58-.52.12-.254.18-.604.18-1.05v-7.51c0-.74-.133-1.28-.4-1.62-.273-.334-.75-.5-1.43-.5v-.5c.5.046.997.07 1.49.07 1.014 0 1.847-.11 2.5-.33v3zm16.625 6.74a4.724 4.724 0 01-.9 1.57c-.406.493-.916.89-1.53 1.19-.613.306-1.3.46-2.06.46-1.14 0-2.126-.26-2.96-.78-.833-.52-1.466-1.25-1.9-2.19-.44-.94-.66-2.024-.66-3.25 0-1.394.224-2.6.67-3.62.447-1.027 1.077-1.817 1.89-2.37.82-.547 1.777-.82 2.87-.82 1.434 0 2.54.436 3.32 1.31.78.866 1.17 2.186 1.17 3.96h-7.5c-.06.413-.09.926-.09 1.54 0 1.053.177 1.973.53 2.76.347.793.8 1.4 1.36 1.82.56.42 1.154.63 1.78.63 1.614 0 2.79-.8 3.53-2.4l.48.19m-2.4-5a8.191 8.191 0 00-.2-2.19c-.166-.66-.426-1.187-.78-1.58a1.674 1.674 0 00-1.3-.58c-.486 0-.94.156-1.36.47-.413.313-.76.796-1.04 1.45-.286.653-.47 1.463-.55 2.43h5.23zm14.26 4.88a5.361 5.361 0 01-.83 1.61c-.38.506-.87.92-1.47 1.24-.606.326-1.313.49-2.12.49-1 0-1.903-.257-2.71-.77-.8-.52-1.433-1.26-1.9-2.22-.466-.96-.7-2.084-.7-3.37 0-1.3.237-2.457.71-3.47.474-1.007 1.137-1.794 1.99-2.36.847-.56 1.81-.84 2.89-.84s2.01.253 2.79.76c.754.506 1.13 1.123 1.13 1.85 0 .42-.12.75-.36.99s-.543.36-.91.36c-.373 0-.686-.107-.94-.32-.253-.22-.38-.517-.38-.89 0-.34.094-.627.28-.86.194-.227.434-.38.72-.46-.153-.294-.436-.534-.85-.72a3.033 3.033 0 00-1.3-.29c-.586 0-1.14.186-1.66.56-.513.38-.936 1.006-1.27 1.88-.34.873-.51 2.02-.51 3.44 0 1.993.32 3.443.96 4.35.647.9 1.48 1.35 2.5 1.35.68 0 1.33-.2 1.95-.6.62-.4 1.13-1.024 1.53-1.87l.46.16zm8.94-9.34v.48h-3.55v9.29c0 .726.13 1.25.39 1.57.254.313.634.47 1.14.47.5 0 .927-.2 1.28-.6.354-.394.65-1.047.89-1.96l.47.11c-.393 2.213-1.433 3.32-3.12 3.32-.54 0-.983-.064-1.33-.19a2.63 2.63 0 01-.94-.61 2.844 2.844 0 01-.73-1.29c-.14-.514-.21-1.204-.21-2.07v-8.04h-2.31v-.48h2.31v-3.67c.9-.02 1.62-.134 2.16-.34v4.01h3.55zm3.816-6.02c.273 0 .53.07.77.21.233.14.42.326.56.56a1.503 1.503 0 010 1.53c-.14.24-.327.426-.56.56a1.503 1.503 0 01-1.53 0c-.24-.134-.43-.32-.57-.56a1.56 1.56 0 010-1.53c.14-.234.33-.42.57-.56.233-.14.487-.21.76-.21m1.25 16.13c0 .446.06.796.18 1.05.12.246.31.42.57.52.26.106.617.16 1.07.16v.5a90.437 90.437 0 00-2.9-.09c-.473 0-1.443.03-2.91.09v-.5c.453 0 .81-.054 1.07-.16.267-.1.46-.274.58-.52.12-.254.18-.604.18-1.05v-7.51c0-.74-.133-1.28-.4-1.62-.273-.334-.75-.5-1.43-.5v-.5c.5.046.997.07 1.49.07 1.013 0 1.847-.11 2.5-.33v10.39zm8.921-10.46c1.06 0 1.997.23 2.81.69.82.46 1.463 1.176 1.93 2.15.473.973.71 2.203.71 3.69 0 1.48-.237 2.706-.71 3.68-.467.966-1.11 1.676-1.93 2.13-.813.46-1.75.69-2.81.69-1.053 0-1.987-.23-2.8-.69-.82-.454-1.467-1.164-1.94-2.13-.467-.974-.7-2.2-.7-3.68 0-1.487.233-2.717.7-3.69.473-.974 1.12-1.69 1.94-2.15.813-.46 1.747-.69 2.8-.69m0 .48c-.96 0-1.72.493-2.28 1.48-.553.98-.83 2.503-.83 4.57 0 2.053.277 3.57.83 4.55.56.98 1.32 1.47 2.28 1.47.967 0 1.727-.49 2.28-1.47.56-.98.84-2.497.84-4.55 0-2.067-.28-3.59-.84-4.57-.553-.987-1.313-1.48-2.28-1.48zm11.258 2.41c.393-1.014.95-1.75 1.67-2.21.713-.454 1.52-.68 2.42-.68 1.113 0 1.96.3 2.54.9.293.326.507.73.64 1.21.127.48.19 1.126.19 1.94v6.41c0 .446.06.796.18 1.05.12.246.313.42.58.52.26.106.617.16 1.07.16v.5a90.917 90.917 0 00-2.88-.09c-.447 0-1.343.03-2.69.09v-.5c.4 0 .71-.054.93-.16a.957.957 0 00.5-.52c.1-.254.15-.604.15-1.05v-6.93c0-.58-.043-1.067-.13-1.46a1.791 1.791 0 00-.56-.95c-.287-.24-.703-.36-1.25-.36-.66 0-1.243.19-1.75.57-.513.386-.91.913-1.19 1.58-.28.666-.42 1.406-.42 2.22v5.33c0 .446.05.796.15 1.05.107.246.273.42.5.52.227.106.54.16.94.16v.5a75.575 75.575 0 00-2.7-.09c-.453 0-1.413.03-2.88.09v-.5c.453 0 .81-.054 1.07-.16.267-.1.46-.274.58-.52.12-.254.18-.604.18-1.05v-7.51c0-.74-.133-1.28-.4-1.62-.273-.334-.75-.5-1.43-.5v-.5c.5.046.997.07 1.49.07 1.013 0 1.847-.11 2.5-.33v2.82z" transform="translate(-1078.456 -1105.708) scale(4.04807)" style="white-space:pre" fill="#4c4c49" color="#4c4c49"/></svg>